<?xml version="1.0" encoding="UTF-8" standalone="no"?>
<svg
        xmlns:dc="http://purl.org/dc/elements/1.1/"
        xmlns:cc="http://creativecommons.org/ns#"
        xmlns:rdf="http://www.w3.org/1999/02/22-rdf-syntax-ns#"
        xmlns="http://www.w3.org/2000/svg"
        xmlns:sodipodi="http://sodipodi.sourceforge.net/DTD/sodipodi-0.dtd"
        xmlns:inkscape="http://www.inkscape.org/namespaces/inkscape"
        id="Layer_1"
        version="1.1"
        viewBox="0 0 26 52"
        xml:space="preserve"
        sodipodi:docname="logo.svg"
        width="32"
        height="32"
        inkscape:version="0.92.3 (2405546, 2018-03-11)"><metadata
   id="metadata4871"><rdf:RDF><cc:Work
       rdf:about=""><dc:format>image/svg+xml</dc:format><dc:type
        rdf:resource="http://purl.org/dc/dcmitype/StillImage"/><dc:title></dc:title></cc:Work></rdf:RDF></metadata>
    <defs
            id="defs4869"/>
    <sodipodi:namedview
            pagecolor="#240f0f"
            bordercolor="#666666"
            borderopacity="1"
            objecttolerance="10"
            gridtolerance="10"
            guidetolerance="10"
            inkscape:pageopacity="0"
            inkscape:pageshadow="2"
            inkscape:window-width="1861"
            inkscape:window-height="978"
            id="namedview4867"
            showgrid="false"
            inkscape:pagecheckerboard="true"
            units="px"
            inkscape:zoom="5.6568542"
            inkscape:cx="-16.90784"
            inkscape:cy="-2.3019736"
            inkscape:window-x="43"
            inkscape:window-y="27"
            inkscape:window-maximized="0"
            inkscape:current-layer="Layer_1"/>
    <style
            type="text/css"
            id="style4818">
	.st0{fill:#231F20;}
</style>

    <g
            id="g21"
            transform="translate(13.214058,0.28726213)"><g
     style="fill:#ffffff"
     id="g4"
     transform="matrix(1.625,0,0,1.625,-24.636313,1.8863133)"><path
       style="fill:#ffffff"
       id="path2"
       d="m 17,20.263 v -1.684 c 0,0 1.568,-1.478 1.682,-2.486 0,0 0.818,-0.565 0.818,-1.578 0,-0.702 -0.313,-0.808 -0.313,-0.808 0,0 0.563,-1.069 0.563,-2.089 C 19.75,9.573 18.724,8 17,8 17,8 16.268,7 15,7 c -2.692,0 -4.875,1.622 -4.875,4.524 0,1.227 0.688,2.183 0.688,2.183 0,0 -0.313,0.153 -0.313,0.808 0,1.273 0.818,1.578 0.818,1.578 0.114,1.008 1.682,2.486 1.682,2.486 v 1.684 C 12.158,22.789 7,21.125 7,27 h 16 c 0,-5.895 -5.158,-4.211 -6,-6.737 z"
       inkscape:connector-curvature="0" /></g>
        <g
                style="fill:#e6e6e6"
                id="g8"
                transform="matrix(1.625,0,0,1.625,-24.636313,1.8863133)"><path
       style="fill:#e6e6e6"
       id="path6"
       d="m 21.75,11.618 c 0,0.735 -0.172,1.441 -0.358,1.989 0.069,0.271 0.108,0.573 0.108,0.908 0,2.47 -2.5,4.934 -2.5,4.934 0.543,0.237 2.28,1.12 2.99,1.551 H 30 c 0,-5.25 -4.263,-3.75 -5,-6 v -1.5 c 0.332,-0.167 1.122,-1.316 1.222,-2.214 C 26.482,11.266 27,10.629 27,10.06 27,9.491 26.82,9.253 26.663,9.161 26.663,9.161 27,8.409 27,7.5 27,5.679 26.508,4 25,4 25,4 24.567,3 23,3 c -2.223,0 -3.588,1.529 -3.918,3.533 1.616,0.866 2.668,2.734 2.668,5.085 z"
       inkscape:connector-curvature="0" /></g>
        <g
                style="fill:#e6e6e6"
                id="g12"
                transform="matrix(1.625,0,0,1.625,-24.636313,1.8863133)"><path
       style="fill:#e6e6e6"
       id="path10"
       d="M 11,19.392 C 10.457,18.812 9.673,17.81 9.388,17.051 8.764,16.738 8.237,16.369 8,15.751 v -1.008 c 0.19,0 0.751,-0.044 0.948,-0.088 C 8.502,13.968 8.125,12.402 8.125,11.524 8.125,9.291 9.086,7.454 10.681,6.303 10.2,4.462 9.132,3 6.601,3 5.687,3 5,4 5,4 c -5.235,0 -2.346,8.355 -3.884,9.587 0,0 0.942,1.167 3.884,1.167 v 0.998 C 4.187,17.87 0,17.087 0,21 H 8.023 C 8.727,20.574 11,19.392 11,19.392 Z"
       inkscape:connector-curvature="0" /></g></g></svg>